<svg id="Layer_1" data-name="Layer 1" xmlns="http://www.w3.org/2000/svg" width="442" height="73" viewBox="0 0 442 73"><defs><style>.cls-1{fill:#fff;}</style></defs><path class="cls-1" d="M33.72,5.82c2.55.39,5.13.68,7.65,1.21a31.75,31.75,0,0,1,5.35,1.72c3.72,1.53,6.1,4.26,6.48,8.32.24,2.6,0,5.23,0,7.9H34.41c0-.94,0-1.88,0-2.82,0-1.12,0-2.24-.14-3.34-.2-2-.66-2.52-2.32-2.79A3.46,3.46,0,0,0,28,18a6.94,6.94,0,0,0,2.83,8.63c3,1.58,6.11,3,9.12,4.53C42.51,32.45,45,34,47.59,35.31A13.35,13.35,0,0,1,54.93,46a35.07,35.07,0,0,1,0,10.23,10.19,10.19,0,0,1-5.82,7.84A33.73,33.73,0,0,1,35,67.48c-6,.27-11.81-.25-17.39-2.55-4-1.65-7.2-4.24-8-8.67-.64-3.59-.71-7.27-1-11H28c0,1.32,0,2.65,0,4,0,1.72.09,3.43.16,5.14.09,1.93.68,2.7,2.25,3,2,.43,3.73-.2,4.52-1.62,2.07-3.73.3-9.43-3.5-11.39-5-2.6-10-5.28-15.08-7.84a13.76,13.76,0,0,1-8.12-12.8A41.56,41.56,0,0,1,9,16.28c.52-3.21,2.57-5.4,5.35-7A28.27,28.27,0,0,1,26.57,6c.63,0,1.25-.14,1.87-.22Z"/><path class="cls-1" d="M384.93,7.18c5.45,0,10.81,0,16.16.06.51,0,1.23.72,1.47,1.27,2.63,5.93,5.17,11.9,7.75,17.86a57.92,57.92,0,0,0,3,6.26V7.33h17.24V66.26h-5.8c-3.51,0-7,0-10.54.09a2.18,2.18,0,0,1-2.34-1.59c-3-7.64-6-15.26-9-22.88a2.45,2.45,0,0,0-.83-1.16V66.18h-17.1Z"/><path class="cls-1" d="M308.36,66.06V7.3h35.45V21H327v8.08h16.86V42.41H327v9.91h16.83V66.06Z"/><path class="cls-1" d="M252.07,66.19H233.54V7.3h34.55V22h-16c0,2.59,0,5,0,7.51,0,.86.69.61,1.15.61,4.44,0,8.87,0,13.31,0h1.51V44.31h-16Z"/><path class="cls-1" d="M158.52,7.27H177V49.33h19.41V66.1H158.52Z"/><path class="cls-1" d="M96.82,7.29H116.1V66.18H96.82Z"/></svg>